<svg width="100" height="128" viewBox="0 0 100 128" fill="none" xmlns="http://www.w3.org/2000/svg">
<path d="M55.1667 89.3703C58.463 89.3703 61.6854 88.4798 64.4262 86.8112C67.167 85.1426 69.3032 82.771 70.5647 79.9963C71.8261 77.2216 72.1562 74.1683 71.5131 71.2227C70.87 68.277 69.2827 65.5713 66.9518 63.4476C64.6209 61.3239 61.6512 59.8777 58.4182 59.2918C55.1852 58.7058 51.834 59.0065 48.7886 60.1559C45.7432 61.3052 43.1402 63.2515 41.3088 65.7487C39.4775 68.2459 38.5 71.1818 38.5 74.1852C38.5 78.2125 40.2559 82.0749 43.3816 84.9227C46.5072 87.7705 50.7464 89.3703 55.1667 89.3703Z" fill="#231F20"/>
<path d="M80.1667 127.333C81.2717 127.333 82.3315 126.933 83.1129 126.221C83.8943 125.509 84.3333 124.544 84.3333 123.537C84.3333 116.489 81.2604 109.73 75.7906 104.746C70.3208 99.7627 62.9021 96.9629 55.1667 96.9629C47.4312 96.9629 40.0125 99.7627 34.5427 104.746C29.0729 109.73 26 116.489 26 123.537C26 124.544 26.439 125.509 27.2204 126.221C28.0018 126.933 29.0616 127.333 30.1667 127.333H80.1667Z" fill="#231F20"/>
</svg>
